<svg width="711" height="129" viewBox="0 0 711 129" fill="none" xmlns="http://www.w3.org/2000/svg">
<g filter="url(#filter0_f_111_2586)">
<path d="M96.44 9.76L98.4399 9.7403L98.4204 7.76H96.44V9.76ZM96.76 42.24V44.24H98.7798L98.7599 42.2203L96.76 42.24ZM91.8 42.24L89.8064 42.4004L89.9545 44.24H91.8V42.24ZM84.12 21.92L82.6884 23.3166L82.7057 23.3343L82.7234 23.3516L84.12 21.92ZM62.68 15.04L62.7225 13.0405L62.713 13.0402L62.7034 13.0401L62.68 15.04ZM35.32 14.72L35.3434 12.7201L33.32 12.6965V14.72H35.32ZM35.32 61.12H33.32V63.12H35.32V61.12ZM64.92 57.12L66.5123 58.3302L66.5285 58.3089L66.544 58.2873L64.92 57.12ZM68.6 42.24V40.24H66.6V42.24H68.6ZM73.72 42.24H75.72V40.24H73.72V42.24ZM73.72 86.56V88.56H75.72V86.56H73.72ZM68.6 86.56H66.6V88.56H68.6V86.56ZM64.76 71.84L63.1425 73.0163L64.76 71.84ZM35.32 66.56V64.56H33.32V66.56H35.32ZM35.32 115.04H33.32V117.04H35.32V115.04ZM50.2 115.04H52.2V113.04H50.2V115.04ZM50.2 120V122H52.2V120H50.2ZM6.04 120H4.04V122H6.04V120ZM6.04 115.04V113.04H4.04V115.04H6.04ZM21.08 115.04V117.04H23.08V115.04H21.08ZM21.08 14.72H23.08V12.72H21.08V14.72ZM6.04 14.72H4.04V16.72H6.04V14.72ZM6.04 9.76V7.76H4.04V9.76H6.04ZM94.4401 9.7797L94.7601 42.2597L98.7599 42.2203L98.4399 9.7403L94.4401 9.7797ZM96.76 40.24H91.8V44.24H96.76V40.24ZM93.7936 42.0796C93.0277 32.5607 90.3778 25.231 85.5166 20.4884L82.7234 23.3516C86.6088 27.1423 89.079 33.3593 89.8064 42.4004L93.7936 42.0796ZM85.5516 20.5233C80.744 15.5956 72.9542 13.2581 62.7225 13.0405L62.6375 17.0395C72.4592 17.2485 78.9626 19.4977 82.6884 23.3166L85.5516 20.5233ZM62.7034 13.0401L35.3434 12.7201L35.2966 16.7199L62.6566 17.0399L62.7034 13.0401ZM33.32 14.72V61.12H37.32V14.72H33.32ZM35.32 63.12H54.84V59.12H35.32V63.12ZM54.84 63.12C59.892 63.12 63.9711 61.6739 66.5123 58.3302L63.3277 55.9098C61.8156 57.8994 59.1747 59.12 54.84 59.12V63.12ZM66.544 58.2873C69.3427 54.3935 70.6 48.9512 70.6 42.24H66.6C66.6 48.5422 65.404 53.0198 63.296 55.9527L66.544 58.2873ZM68.6 44.24H73.72V40.24H68.6V44.24ZM71.72 42.24V86.56H75.72V42.24H71.72ZM73.72 84.56H68.6V88.56H73.72V84.56ZM70.6 86.56C70.6 80.025 69.2748 74.6475 66.3775 70.6637L63.1425 73.0163C65.3652 76.0725 66.6 80.5083 66.6 86.56H70.6ZM66.3775 70.6637C63.4736 66.6708 59.5865 64.56 54.84 64.56V68.56C58.2002 68.56 60.9264 69.9692 63.1425 73.0163L66.3775 70.6637ZM54.84 64.56H35.32V68.56H54.84V64.56ZM33.32 66.56V115.04H37.32V66.56H33.32ZM35.32 117.04H50.2V113.04H35.32V117.04ZM48.2 115.04V120H52.2V115.04H48.2ZM50.2 118H6.04V122H50.2V118ZM8.04 120V115.04H4.04V120H8.04ZM6.04 117.04H21.08V113.04H6.04V117.04ZM23.08 115.04V14.72H19.08V115.04H23.08ZM21.08 12.72H6.04V16.72H21.08V12.72ZM8.04 14.72V9.76H4.04V14.72H8.04ZM6.04 11.76H96.44V7.76H6.04V11.76ZM208.906 115.04H210.906V113.04H208.906V115.04ZM208.906 120V122H210.906V120H208.906ZM167.306 120H165.306V122H167.306V120ZM167.306 115.04V113.04H165.306V115.04H167.306ZM180.106 115.04V117.04H182.912L181.997 114.387L180.106 115.04ZM169.226 83.52L171.117 82.8674L170.652 81.52H169.226V83.52ZM130.666 83.52V81.52H129.34L128.824 82.7421L130.666 83.52ZM124.586 97.92L122.744 97.1421L122.733 97.1665L122.724 97.1912L124.586 97.92ZM122.666 113.6L124.33 112.491L122.666 113.6ZM132.746 115.04H134.746V113.04H132.746V115.04ZM132.746 120V122H134.746V120H132.746ZM97.8662 120H95.8662V122H97.8662V120ZM97.8662 115.04L97.9047 113.04L95.8662 113.001V115.04H97.8662ZM109.866 112.96L110.906 114.668L110.916 114.662L110.926 114.656L109.866 112.96ZM118.186 97.92L116.317 97.2084L116.309 97.23L116.301 97.2519L118.186 97.92ZM152.906 6.72V4.72H151.528L151.037 6.00842L152.906 6.72ZM159.306 6.72L161.195 6.06166L160.727 4.72H159.306V6.72ZM197.066 115.04L195.178 115.698L195.645 117.04H197.066V115.04ZM132.906 77.44L131.042 76.7148L129.982 79.44H132.906V77.44ZM166.986 77.44V79.44H169.773L168.881 76.7998L166.986 77.44ZM151.146 30.56L153.041 29.9198L151.279 24.7039L149.282 29.8348L151.146 30.56ZM206.906 115.04V120H210.906V115.04H206.906ZM208.906 118H167.306V122H208.906V118ZM169.306 120V115.04H165.306V120H169.306ZM167.306 117.04H180.106V113.04H167.306V117.04ZM181.997 114.387L171.117 82.8674L167.336 84.1726L178.216 115.693L181.997 114.387ZM169.226 81.52H130.666V85.52H169.226V81.52ZM128.824 82.7421L122.744 97.1421L126.429 98.6979L132.509 84.2979L128.824 82.7421ZM122.724 97.1912C120.798 102.113 119.706 106.046 119.706 108.8H123.706C123.706 106.861 124.535 103.541 126.449 98.6488L122.724 97.1912ZM119.706 108.8C119.706 111.123 120.018 113.233 121.002 114.709L124.33 112.491C124.035 112.047 123.706 110.957 123.706 108.8H119.706ZM121.002 114.709C121.529 115.5 122.371 115.893 122.979 116.112C123.659 116.357 124.478 116.531 125.383 116.66C127.203 116.92 129.673 117.04 132.746 117.04V113.04C129.739 113.04 127.49 112.92 125.949 112.7C125.174 112.589 124.653 112.463 124.334 112.348C123.942 112.207 124.124 112.18 124.33 112.491L121.002 114.709ZM130.746 115.04V120H134.746V115.04H130.746ZM132.746 118H97.8662V122H132.746V118ZM99.8662 120V115.04H95.8662V120H99.8662ZM97.8278 117.04C103.458 117.148 107.945 116.471 110.906 114.668L108.826 111.252C106.881 112.436 103.368 113.145 97.9047 113.04L97.8278 117.04ZM110.926 114.656C112.652 113.577 114.188 111.549 115.616 108.968C117.077 106.328 118.559 102.854 120.071 98.5881L116.301 97.2519C114.827 101.412 113.429 104.659 112.116 107.032C110.771 109.464 109.64 110.743 108.806 111.264L110.926 114.656ZM120.055 98.6316L154.775 7.43158L151.037 6.00842L116.317 97.2084L120.055 98.6316ZM152.906 8.72H159.306V4.72H152.906V8.72ZM157.418 7.37834L195.178 115.698L198.955 114.382L161.195 6.06166L157.418 7.37834ZM197.066 117.04H208.906V113.04H197.066V117.04ZM132.906 79.44H166.986V75.44H132.906V79.44ZM168.881 76.7998L153.041 29.9198L149.251 31.2002L165.091 78.0802L168.881 76.7998ZM149.282 29.8348L131.042 76.7148L134.77 78.1652L153.01 31.2852L149.282 29.8348ZM276.274 113.12L275.177 111.448L275.169 111.453L276.274 113.12ZM218.034 116.16L216.034 116.147L216.025 117.539L217.327 118.031L218.034 116.16ZM218.194 90.72V88.72H216.206L216.194 90.7074L218.194 90.72ZM222.994 90.72L224.988 90.5685L224.848 88.72H222.994V90.72ZM230.514 108.96L229.215 110.481L229.225 110.49L230.514 108.96ZM239.474 113.28L240.044 111.363L239.474 113.28ZM250.194 114.88L250.165 112.88L250.146 112.88L250.127 112.881L250.194 114.88ZM269.554 108.96L270.692 110.604L270.71 110.592L270.728 110.579L269.554 108.96ZM278.034 93.12L280.033 93.1845L280.034 93.1523V93.12H278.034ZM270.674 76.48L269.364 77.9914L269.372 77.9985L269.38 78.0055L270.674 76.48ZM250.674 68.8L250.431 70.7853L250.441 70.7864L250.45 70.7875L250.674 68.8ZM229.554 14.56L230.677 16.2146L230.687 16.2083L230.696 16.2018L229.554 14.56ZM267.474 8.32L267.035 10.2712L267.058 10.2765L267.082 10.2812L267.474 8.32ZM278.194 7.19999V5.19999H276.657L276.261 6.68467L278.194 7.19999ZM282.674 7.19999H284.674V5.19999H282.674V7.19999ZM282.674 35.84V37.84H284.674V35.84H282.674ZM277.874 35.84L275.883 36.0283L276.054 37.84H277.874V35.84ZM270.674 18.72L269.343 20.2126L269.352 20.2214L269.362 20.2301L270.674 18.72ZM252.914 13.6L252.887 11.6002L252.886 11.6002L252.914 13.6ZM229.874 34.56L227.874 34.591L227.874 34.5948L229.874 34.56ZM255.474 55.52L255.688 53.5314L255.675 53.5302L255.474 55.52ZM289.154 84.8C289.154 96.5341 284.505 105.329 275.177 111.448L277.371 114.792C287.883 107.897 293.154 97.8126 293.154 84.8H289.154ZM275.169 111.453C267.039 116.839 256.73 119.6 244.114 119.6V123.6C257.311 123.6 268.441 120.708 277.378 114.787L275.169 111.453ZM244.114 119.6C236.632 119.6 228.183 117.856 218.741 114.289L217.327 118.031C227.085 121.717 236.022 123.6 244.114 123.6V119.6ZM220.034 116.173L220.194 90.7326L216.194 90.7074L216.034 116.147L220.034 116.173ZM218.194 92.72H222.994V88.72H218.194V92.72ZM220.999 90.8715C221.661 99.5804 224.28 106.268 229.215 110.481L231.812 107.439C228.001 104.185 225.607 98.7129 224.988 90.5685L220.999 90.8715ZM229.225 110.49C231.546 112.444 234.824 113.984 238.904 115.197L240.044 111.363C236.23 110.229 233.535 108.889 231.802 107.43L229.225 110.49ZM238.904 115.197C243.001 116.415 246.794 116.994 250.26 116.879L250.127 112.881C247.194 112.979 243.84 112.492 240.044 111.363L238.904 115.197ZM250.223 116.88C257.942 116.768 264.789 114.691 270.692 110.604L268.415 107.316C263.225 110.909 257.166 112.779 250.165 112.88L250.223 116.88ZM270.728 110.579C276.659 106.276 279.799 100.427 280.033 93.1845L276.035 93.0555C275.842 99.0399 273.328 103.751 268.379 107.341L270.728 110.579ZM280.034 93.12C280.034 85.651 277.36 79.5268 271.967 74.9545L269.38 78.0055C273.801 81.7532 276.034 86.7224 276.034 93.12H280.034ZM271.984 74.9686C266.787 70.4652 259.694 67.8022 250.897 66.8125L250.45 70.7875C258.72 71.7178 264.96 74.1748 269.364 77.9914L271.984 74.9686ZM250.916 66.8147C239.746 65.4512 231.66 62.4639 226.396 58.0653C221.218 53.7378 218.594 47.898 218.594 40.32H214.594C214.594 48.9553 217.65 55.9688 223.831 61.1347C229.928 66.2294 238.882 69.3755 250.431 70.7853L250.916 66.8147ZM218.594 40.32C218.594 29.6113 222.637 21.6741 230.677 16.2146L228.43 12.9054C219.191 19.1792 214.594 28.4153 214.594 40.32H218.594ZM230.696 16.2018C237.664 11.3542 246.208 8.88 256.434 8.88V4.88C245.54 4.88 236.163 7.52581 228.412 12.9182L230.696 16.2018ZM256.434 8.88C259.333 8.88 262.858 9.33146 267.035 10.2712L267.913 6.36878C263.556 5.38853 259.721 4.88 256.434 4.88V8.88ZM267.082 10.2812C271.285 11.1218 274.22 11.6 275.634 11.6V7.59999C274.701 7.59999 272.196 7.22481 267.866 6.35884L267.082 10.2812ZM275.634 11.6C276.73 11.6 277.768 11.2407 278.602 10.4591C279.392 9.71821 279.855 8.73345 280.126 7.71532L276.261 6.68467C276.106 7.26654 275.929 7.48177 275.866 7.54092C275.84 7.56545 275.825 7.57245 275.811 7.57733C275.795 7.58337 275.743 7.59999 275.634 7.59999V11.6ZM278.194 9.19999H282.674V5.19999H278.194V9.19999ZM280.674 7.19999V35.84H284.674V7.19999H280.674ZM282.674 33.84H277.874V37.84H282.674V33.84ZM279.865 35.6516C279.093 27.4876 276.577 21.1976 271.985 17.2099L269.362 20.2301C272.877 23.2824 275.162 28.4057 275.883 36.0283L279.865 35.6516ZM272.005 17.2274C267.537 13.2428 261.039 11.49 252.887 11.6002L252.941 15.5998C260.575 15.4967 265.917 17.1572 269.343 20.2126L272.005 17.2274ZM252.886 11.6002C244.848 11.7103 238.473 13.5681 234.128 17.5206C229.736 21.5157 227.761 27.3344 227.874 34.591L231.874 34.529C231.773 28.0256 233.531 23.471 236.82 20.4794C240.155 17.4452 245.406 15.703 252.941 15.5998L252.886 11.6002ZM227.874 34.5948C227.99 41.2412 230.391 46.6373 235.167 50.5475C239.86 54.39 246.649 56.6366 255.272 57.5098L255.675 53.5302C247.445 52.6967 241.541 50.5967 237.701 47.4525C233.943 44.376 231.971 40.1455 231.873 34.5252L227.874 34.5948ZM255.26 57.5085C266.964 58.7682 275.443 61.7749 280.965 66.3061C286.398 70.7641 289.154 76.8493 289.154 84.8H293.154C293.154 75.7907 289.963 68.5159 283.503 63.2139C277.131 57.9851 267.77 54.8318 255.688 53.5315L255.26 57.5085ZM409.505 115.04H411.505V113.04H409.505V115.04ZM409.505 120V122H411.505V120H409.505ZM365.025 120H363.025V122H365.025V120ZM365.025 115.04V113.04H363.025V115.04H365.025ZM380.065 115.04V117.04H382.065V115.04H380.065ZM380.065 64.8H382.065V62.8H380.065V64.8ZM330.945 64.8V62.8H328.945V64.8H330.945ZM330.945 115.04H328.945V117.04H330.945V115.04ZM345.825 115.04H347.825V113.04H345.825V115.04ZM345.825 120V122H347.825V120H345.825ZM301.665 120H299.665V122H301.665V120ZM301.665 115.04V113.04H299.665V115.04H301.665ZM316.705 115.04V117.04H318.705V115.04H316.705ZM316.705 14.72H318.705V12.72H316.705V14.72ZM301.665 14.72H299.665V16.72H301.665V14.72ZM301.665 9.76V7.76H299.665V9.76H301.665ZM345.825 9.76H347.825V7.76H345.825V9.76ZM345.825 14.72V16.72H347.825V14.72H345.825ZM330.945 14.72V12.72H328.945V14.72H330.945ZM330.945 59.2H328.945V61.2H330.945V59.2ZM380.065 59.2V61.2H382.065V59.2H380.065ZM380.065 14.72H382.065V12.72H380.065V14.72ZM365.025 14.72H363.025V16.72H365.025V14.72ZM365.025 9.76V7.76H363.025V9.76H365.025ZM409.505 9.76H411.505V7.76H409.505V9.76ZM409.505 14.72V16.72H411.505V14.72H409.505ZM394.625 14.72V12.72H392.625V14.72H394.625ZM394.625 115.04H392.625V117.04H394.625V115.04ZM407.505 115.04V120H411.505V115.04H407.505ZM409.505 118H365.025V122H409.505V118ZM367.025 120V115.04H363.025V120H367.025ZM365.025 117.04H380.065V113.04H365.025V117.04ZM382.065 115.04V64.8H378.065V115.04H382.065ZM380.065 62.8H330.945V66.8H380.065V62.8ZM328.945 64.8V115.04H332.945V64.8H328.945ZM330.945 117.04H345.825V113.04H330.945V117.04ZM343.825 115.04V120H347.825V115.04H343.825ZM345.825 118H301.665V122H345.825V118ZM303.665 120V115.04H299.665V120H303.665ZM301.665 117.04H316.705V113.04H301.665V117.04ZM318.705 115.04V14.72H314.705V115.04H318.705ZM316.705 12.72H301.665V16.72H316.705V12.72ZM303.665 14.72V9.76H299.665V14.72H303.665ZM301.665 11.76H345.825V7.76H301.665V11.76ZM343.825 9.76V14.72H347.825V9.76H343.825ZM345.825 12.72H330.945V16.72H345.825V12.72ZM328.945 14.72V59.2H332.945V14.72H328.945ZM330.945 61.2H380.065V57.2H330.945V61.2ZM382.065 59.2V14.72H378.065V59.2H382.065ZM380.065 12.72H365.025V16.72H380.065V12.72ZM367.025 14.72V9.76H363.025V14.72H367.025ZM365.025 11.76H409.505V7.76H365.025V11.76ZM407.505 9.76V14.72H411.505V9.76H407.505ZM409.505 12.72H394.625V16.72H409.505V12.72ZM392.625 14.72V115.04H396.625V14.72H392.625ZM394.625 117.04H409.505V113.04H394.625V117.04ZM469.475 115.04H471.475V113.04H469.475V115.04ZM469.475 120V122H471.475V120H469.475ZM423.715 120H421.715V122H423.715V120ZM423.715 115.04V113.04H421.715V115.04H423.715ZM438.755 115.04V117.04H440.755V115.04H438.755ZM438.755 14.72H440.755V12.72H438.755V14.72ZM423.715 14.72H421.715V16.72H423.715V14.72ZM423.715 9.76V7.76H421.715V9.76H423.715ZM469.475 9.76H471.475V7.76H469.475V9.76ZM469.475 14.72V16.72H471.475V14.72H469.475ZM454.595 14.72V12.72H452.595V14.72H454.595ZM454.595 115.04H452.595V117.04H454.595V115.04ZM467.475 115.04V120H471.475V115.04H467.475ZM469.475 118H423.715V122H469.475V118ZM425.715 120V115.04H421.715V120H425.715ZM423.715 117.04H438.755V113.04H423.715V117.04ZM440.755 115.04V14.72H436.755V115.04H440.755ZM438.755 12.72H423.715V16.72H438.755V12.72ZM425.715 14.72V9.76H421.715V14.72H425.715ZM423.715 11.76H469.475V7.76H423.715V11.76ZM467.475 9.76V14.72H471.475V9.76H467.475ZM469.475 12.72H454.595V16.72H469.475V12.72ZM452.595 14.72V115.04H456.595V14.72H452.595ZM454.595 117.04H469.475V113.04H454.595V117.04ZM569.616 22.88L568.062 24.1388L568.072 24.1512L568.082 24.1634L569.616 22.88ZM568.976 105.76L567.441 104.478L568.976 105.76ZM499.376 105.44L497.852 106.734L497.862 106.746L497.872 106.758L499.376 105.44ZM485.296 63.68L487.296 63.7058V63.7056L485.296 63.68ZM499.376 22.88L497.867 21.5673L497.866 21.5684L499.376 22.88ZM557.296 102.4L555.536 101.451L557.296 102.4ZM558.256 27.52L560.045 26.6256L560.042 26.6183L560.038 26.6111L558.256 27.52ZM509.456 26.72L507.679 25.8027L507.675 25.8096L507.672 25.8166L509.456 26.72ZM568.082 24.1634C576.46 34.1756 580.736 47.3911 580.736 64H584.736C584.736 46.6889 580.266 32.4911 571.15 21.5965L568.082 24.1634ZM580.736 64C580.736 80.472 576.263 93.9129 567.441 104.478L570.511 107.042C580.037 95.6338 584.736 81.2346 584.736 64H580.736ZM567.441 104.478C558.63 115.031 547.716 120.24 534.576 120.24V124.24C548.956 124.24 560.976 118.463 570.511 107.042L567.441 104.478ZM534.576 120.24C521.555 120.24 510.353 114.933 500.881 104.122L497.872 106.758C508.026 118.347 520.29 124.24 534.576 124.24V120.24ZM500.901 104.146C491.65 93.25 487.088 79.8155 487.296 63.7058L483.296 63.6542C483.078 80.6111 487.903 95.0166 497.852 106.734L500.901 104.146ZM487.296 63.7056C487.505 47.4448 492.08 34.3293 500.886 24.1916L497.866 21.5684C488.326 32.5507 483.515 46.6352 483.296 63.6544L487.296 63.7056ZM500.885 24.1927C509.777 13.9718 521.063 8.88 534.896 8.88V4.88C519.93 4.88 507.535 10.4548 497.867 21.5673L500.885 24.1927ZM534.896 8.88C548.839 8.88 559.826 13.9708 568.062 24.1388L571.17 21.6211C562.126 10.4559 549.967 4.88 534.896 4.88V8.88ZM534.736 118.64C540.029 118.64 544.768 117.369 548.884 114.771C552.991 112.179 556.368 108.335 559.057 103.349L555.536 101.451C553.105 105.959 550.162 109.234 546.749 111.389C543.344 113.538 539.363 114.64 534.736 114.64V118.64ZM559.057 103.349C564.389 93.4619 566.976 80.5113 566.976 64.64H562.976C562.976 80.1287 560.443 92.3515 555.536 101.451L559.057 103.349ZM566.976 64.64C566.976 48.7034 564.721 35.978 560.045 26.6256L556.467 28.4144C560.751 36.982 562.976 49.0033 562.976 64.64H566.976ZM560.038 26.6111C557.242 21.1318 553.634 16.9136 549.17 14.0727C544.699 11.2277 539.489 9.83999 533.616 9.83999V13.84C538.837 13.84 543.28 15.0656 547.023 17.4473C550.772 19.8331 553.937 23.4548 556.475 28.4289L560.038 26.6111ZM533.616 9.83999C527.813 9.83999 522.678 11.1532 518.287 13.8571C513.899 16.5598 510.375 20.5783 507.679 25.8027L511.234 27.6373C513.657 22.9417 516.72 19.5202 520.385 17.2629C524.048 15.0068 528.432 13.84 533.616 13.84V9.83999ZM507.672 25.8166C503.193 34.6631 501.056 47.6268 501.056 64.48H505.056C505.056 47.8398 507.186 35.6303 511.241 27.6235L507.672 25.8166ZM501.056 64.48C501.056 82.004 503.705 95.4816 509.267 104.638C514.926 113.956 523.51 118.64 534.736 118.64V114.64C524.842 114.64 517.586 110.631 512.686 102.562C507.687 94.3318 505.056 81.7294 505.056 64.48H501.056ZM704.78 9.76H706.78V7.76H704.78V9.76ZM704.78 14.72V16.72H706.78V14.72H704.78ZM693.9 16.32L695.314 17.7342V17.7342L693.9 16.32ZM689.74 28.64H687.74V28.6468L689.74 28.64ZM690.06 122.72V124.72H692.067L692.06 122.713L690.06 122.72ZM686.38 122.72L684.702 123.809L685.294 124.72H686.38V122.72ZM618.7 18.4L620.378 17.3115L616.7 11.6426V18.4H618.7ZM622.7 113.44L624.114 112.026L624.1 112.011L624.085 111.997L622.7 113.44ZM633.58 115.04H635.58V113.04H633.58V115.04ZM633.58 120V122H635.58V120H633.58ZM598.22 120H596.22V122H598.22V120ZM598.22 115.04V113.04H596.22V115.04H598.22ZM608.78 113.6L607.478 112.081L607.46 112.097L607.442 112.113L608.78 113.6ZM613.26 18.4H615.26V18.2701L615.243 18.1413L613.26 18.4ZM599.5 14.72H597.5V16.72H599.5V14.72ZM599.5 9.76V7.76H597.5V9.76H599.5ZM631.5 9.76L633.182 8.67865L632.592 7.76H631.5V9.76ZM684.46 92.16L682.778 93.2413L686.46 98.9709V92.16H684.46ZM679.98 16.16L681.368 14.7203L681.31 14.6637L681.246 14.6121L679.98 16.16ZM669.42 14.72H667.42V16.72H669.42V14.72ZM669.42 9.76V7.76H667.42V9.76H669.42ZM702.78 9.76V14.72H706.78V9.76H702.78ZM704.78 12.72C701.646 12.72 699.082 12.8541 697.129 13.1413C696.153 13.2848 695.277 13.4739 694.535 13.727C693.823 13.9697 693.065 14.3267 692.486 14.9058L695.314 17.7342C695.268 17.7799 695.364 17.6703 695.825 17.513C696.256 17.3661 696.873 17.2219 697.711 17.0987C699.385 16.8526 701.728 16.72 704.78 16.72V12.72ZM692.486 14.9058C689.212 18.1799 687.74 22.8786 687.74 28.64H691.74C691.74 23.5214 693.042 20.0068 695.314 17.7342L692.486 14.9058ZM687.74 28.6468L688.06 122.727L692.06 122.713L691.74 28.6332L687.74 28.6468ZM690.06 120.72H686.38V124.72H690.06V120.72ZM688.058 121.631L620.378 17.3115L617.022 19.4885L684.702 123.809L688.058 121.631ZM616.7 18.4V101.28H620.7V18.4H616.7ZM616.7 101.28C616.7 107.1 618.095 111.792 621.315 114.883L624.085 111.997C621.971 109.968 620.7 106.553 620.7 101.28H616.7ZM621.286 114.854C621.865 115.433 622.623 115.79 623.335 116.033C624.077 116.286 624.953 116.475 625.929 116.619C627.882 116.906 630.446 117.04 633.58 117.04V113.04C630.528 113.04 628.185 112.907 626.511 112.661C625.673 112.538 625.056 112.394 624.625 112.247C624.164 112.09 624.068 111.98 624.114 112.026L621.286 114.854ZM631.58 115.04V120H635.58V115.04H631.58ZM633.58 118H598.22V122H633.58V118ZM600.22 120V115.04H596.22V120H600.22ZM598.22 117.04C601.245 117.04 603.721 116.919 605.61 116.662C606.554 116.533 607.401 116.364 608.119 116.138C608.805 115.923 609.541 115.606 610.118 115.087L607.442 112.113C607.486 112.074 607.381 112.177 606.921 112.322C606.493 112.456 605.886 112.587 605.07 112.698C603.439 112.921 601.168 113.04 598.22 113.04V117.04ZM610.082 115.119C613.678 112.036 615.26 107.254 615.26 101.28H611.26C611.26 106.612 609.855 110.044 607.478 112.081L610.082 115.119ZM615.26 101.28V18.4H611.26V101.28H615.26ZM615.243 18.1413C615.031 16.5149 614.351 15.0601 613.037 14.0528C611.766 13.0784 610.157 12.72 608.46 12.72V16.72C609.643 16.72 610.274 16.9749 610.603 17.2272C610.889 17.4466 611.169 17.8318 611.277 18.6587L615.243 18.1413ZM608.46 12.72H599.5V16.72H608.46V12.72ZM601.5 14.72V9.76H597.5V14.72H601.5ZM599.5 11.76H631.5V7.76H599.5V11.76ZM629.818 10.8413L682.778 93.2413L686.142 91.0786L633.182 8.67865L629.818 10.8413ZM686.46 92.16V28.64H682.46V92.16H686.46ZM686.46 28.64C686.46 22.8335 684.857 18.0844 681.368 14.7203L678.592 17.5997C681.076 19.9956 682.46 23.5664 682.46 28.64H686.46ZM681.246 14.6121C680.666 14.1373 679.947 13.8327 679.247 13.618C678.522 13.3956 677.674 13.2271 676.73 13.0983C674.842 12.8408 672.394 12.72 669.42 12.72V16.72C672.313 16.72 674.558 16.8391 676.19 17.0617C677.006 17.1729 677.625 17.3043 678.073 17.442C678.295 17.5102 678.457 17.5741 678.569 17.6275C678.683 17.6819 678.721 17.7136 678.714 17.7079L681.246 14.6121ZM671.42 14.72V9.76H667.42V14.72H671.42ZM669.42 11.76H704.78V7.76H669.42V11.76Z" fill="#7E7D7C"/>
</g>
<defs>
<filter id="filter0_f_111_2586" x="0.0400391" y="0.719971" width="710.74" height="128" filterUnits="userSpaceOnUse" color-interpolation-filters="sRGB">
<feFlood flood-opacity="0" result="BackgroundImageFix"/>
<feBlend mode="normal" in="SourceGraphic" in2="BackgroundImageFix" result="shape"/>
<feGaussianBlur stdDeviation="3" result="effect1_foregroundBlur_111_2586"/>
</filter>
</defs>
</svg>
