<svg width="21" height="20" viewBox="0 0 21 20" fill="none" xmlns="http://www.w3.org/2000/svg">
<g id="Media / Social icon" clip-path="url(#clip0_111_2311)">
<path id="Vector" d="M20.9082 10C20.9082 4.47715 16.4311 0 10.9082 0C5.38535 0 0.908203 4.47715 0.908203 10C0.908203 14.9912 4.56504 19.1283 9.3457 19.8785V12.8906H6.80664V10H9.3457V7.79688C9.3457 5.29063 10.8387 3.90625 13.1229 3.90625C14.2166 3.90625 15.3613 4.10156 15.3613 4.10156V6.5625H14.1004C12.8582 6.5625 12.4707 7.3334 12.4707 8.125V10H15.2441L14.8008 12.8906H12.4707V19.8785C17.2514 19.1283 20.9082 14.9912 20.9082 10Z" fill="#B3B3B3"/>
</g>
<defs>
<clipPath id="clip0_111_2311">
<rect width="20" height="20" fill="white" transform="translate(0.908203)"/>
</clipPath>
</defs>
</svg>
